<svg preserveAspectRatio="none" width="100%" height="100%" overflow="visible" style="display: block;" viewBox="0 0 147 148" fill="none" xmlns="http://www.w3.org/2000/svg">
<g id="Chrome">
<path id="Vector" d="M73.5 12.3333C53.459 12.3333 35.7199 22.0632 24.5479 37.0482L46.7151 59.3662C51.903 49.7647 61.8809 43.1667 73.5 43.1667C80.3478 43.1667 86.6054 45.51 91.7075 49.3333H128.625L100.907 60.4984C102.904 64.593 104.125 69.1345 104.125 74C104.125 84.1318 99.1984 93.0488 91.7075 98.6667H91.875L67.5784 135.366C69.5261 135.557 71.4971 135.667 73.5 135.667C107.328 135.667 134.75 108.059 134.75 74C134.75 39.9415 107.328 12.3333 73.5 12.3333ZM24.5359 37.0723C16.8613 47.3768 12.25 60.125 12.25 74C12.25 106.011 36.484 132.307 67.4827 135.354L77.7229 104.4C76.3264 104.597 74.9455 104.833 73.5 104.833C56.5889 104.833 42.875 91.0262 42.875 74L24.5359 37.0723ZM73.5 55.5C68.6267 55.5 63.9529 57.4491 60.5069 60.9185C57.0609 64.3879 55.125 69.0935 55.125 74C55.125 78.9065 57.0609 83.6121 60.5069 87.0815C63.9529 90.5509 68.6267 92.5 73.5 92.5C78.3734 92.5 83.0471 90.5509 86.4931 87.0815C89.9391 83.6121 91.875 78.9065 91.875 74C91.875 69.0935 89.9391 64.3879 86.4931 60.9185C83.0471 57.4491 78.3734 55.5 73.5 55.5Z" fill="var(--fill-0, black)"/>
</g>
</svg>
