<svg preserveAspectRatio="none" width="100%" height="100%" overflow="visible" style="display: block;" viewBox="0 0 114 114" fill="none" xmlns="http://www.w3.org/2000/svg">
<g id="Access time" clip-path="url(#clip0_0_36)">
<g id="Vector">
</g>
<path id="Vector_2" d="M56.9525 9.5C30.7325 9.5 9.5 30.78 9.5 57C9.5 83.22 30.7325 104.5 56.9525 104.5C83.22 104.5 104.5 83.22 104.5 57C104.5 30.78 83.22 9.5 56.9525 9.5ZM57 95C36.005 95 19 77.995 19 57C19 36.005 36.005 19 57 19C77.995 19 95 36.005 95 57C95 77.995 77.995 95 57 95Z" fill="var(--fill-0, black)"/>
<path id="Vector_3" d="M59.375 33.25H52.25V61.75L77.1875 76.7125L80.75 70.87L59.375 58.1875V33.25Z" fill="var(--fill-0, black)"/>
</g>
<defs>
<clipPath id="clip0_0_36">
<rect width="114" height="114" fill="white"/>
</clipPath>
</defs>
</svg>
