<svg preserveAspectRatio="none" width="100%" height="100%" overflow="visible" style="display: block;" viewBox="0 0 161 161" fill="none" xmlns="http://www.w3.org/2000/svg">
<g id="mage:instagram-circle">
<path id="Vector" d="M91.3004 82.1301C91.2599 84.2552 90.5894 86.3205 89.3738 88.064C88.1582 89.8076 86.4523 91.151 84.4724 91.924C82.4924 92.6969 80.3276 92.8647 78.2522 92.4059C76.1768 91.9471 74.2844 90.8824 72.8147 89.3469C71.3451 87.8113 70.3645 85.874 69.9972 83.7805C69.6299 81.687 69.8924 79.5315 70.7515 77.5874C71.6105 75.6432 73.0275 73.9979 74.8227 72.86C76.6179 71.7221 78.7106 71.1428 80.8354 71.1955C83.659 71.3001 86.3308 72.5003 88.2844 74.5415C90.238 76.5828 91.3198 79.3047 91.3004 82.1301Z" fill="var(--fill-0, black)"/>
<path id="Vector_2" d="M99.0351 48.5214H62.6424C59.0414 48.5214 55.5879 49.9519 53.0416 52.4982C50.4952 55.0445 49.0647 58.498 49.0647 62.099V99.3102C49.0647 101.093 49.4159 102.859 50.0983 104.506C50.7806 106.153 51.7808 107.65 53.0416 108.911C54.3024 110.172 55.7991 111.172 57.4465 111.854C59.0938 112.537 60.8594 112.888 62.6424 112.888H99.0351C100.818 112.888 102.584 112.537 104.231 111.854C105.878 111.172 107.375 110.172 108.636 108.911C109.897 107.65 110.897 106.153 111.579 104.506C112.262 102.859 112.613 101.093 112.613 99.3102V62.1661C112.62 60.3779 112.274 58.6059 111.595 56.9517C110.916 55.2974 109.917 53.7934 108.656 52.5258C107.394 51.2583 105.895 50.2521 104.245 49.5649C102.594 48.8777 100.823 48.5231 99.0351 48.5214ZM80.8354 100.33C77.2328 100.411 73.6877 99.4172 70.6524 97.4748C67.6172 95.5325 65.2295 92.7298 63.7942 89.4245C62.3588 86.1192 61.9408 82.4611 62.5935 78.9172C63.2463 75.3733 64.9402 72.1043 67.459 69.5273C69.9779 66.9503 73.2074 65.1822 76.7355 64.4488C80.2636 63.7153 83.9302 64.0497 87.2674 65.4093C90.6046 66.7688 93.4611 69.0919 95.4722 72.082C97.4833 75.0721 98.5579 78.5937 98.5588 82.1972C98.5881 84.5522 98.1526 86.8898 97.2773 89.0763C96.402 91.2627 95.1041 93.2551 93.4578 94.9394C91.8116 96.6236 89.8494 97.9666 87.6834 98.8916C85.5175 99.8166 83.1904 100.305 80.8354 100.33ZM100.531 64.0713C100.088 64.0714 99.6502 63.9831 99.2421 63.8117C98.834 63.6404 98.4641 63.3892 98.1543 63.0731C97.8444 62.757 97.6007 62.3823 97.4375 61.9708C97.2743 61.5593 97.1948 61.1194 97.2037 60.6769C97.2037 59.7766 97.5614 58.9132 98.1979 58.2767C98.8345 57.6401 99.6979 57.2825 100.598 57.2825C101.498 57.2825 102.362 57.6401 102.998 58.2767C103.635 58.9132 103.993 59.7766 103.993 60.6769C104.006 61.1561 103.916 61.6325 103.728 62.0736C103.54 62.5146 103.259 62.9098 102.904 63.2322C102.549 63.5546 102.129 63.7964 101.672 63.9412C101.215 64.0861 100.732 64.1304 100.256 64.0713H100.531Z" fill="var(--fill-0, black)"/>
<path id="Vector_3" d="M80.8354 13.4167C63.0438 13.3277 45.9456 20.3101 33.3021 32.8277C20.6586 45.3454 13.5056 62.373 13.4167 80.1646C13.3277 97.9562 20.3101 115.054 32.8277 127.698C45.3454 140.341 62.373 147.494 80.1646 147.583C88.9741 147.627 97.706 145.936 105.862 142.605C114.018 139.275 121.438 134.37 127.698 128.172C133.958 121.974 138.937 114.604 142.349 106.482C145.761 98.3595 147.539 89.6449 147.583 80.8354C147.627 72.0259 145.936 63.294 142.605 55.1382C139.275 46.9824 134.37 39.5625 128.172 33.3021C121.974 27.0417 114.604 22.0634 106.482 18.6514C98.3595 15.2395 89.6449 13.4607 80.8354 13.4167ZM121.575 98.6259C121.594 101.635 121.015 104.619 119.872 107.403C118.729 110.187 117.045 112.717 114.917 114.845C112.789 116.974 110.26 118.659 107.476 119.802C104.692 120.946 101.709 121.526 98.6997 121.508H62.9845C59.975 121.527 56.9916 120.948 54.2074 119.805C51.4232 118.662 48.8936 116.978 46.7651 114.85C44.6367 112.722 42.9518 110.193 41.8081 107.409C40.6644 104.625 40.0846 101.642 40.1024 98.6326V62.9108C40.0837 59.9012 40.6626 56.9178 41.8055 54.1336C42.9484 51.3494 44.6326 48.8198 46.7604 46.6913C48.8882 44.5629 51.4173 42.878 54.2012 41.7343C56.9851 40.5906 59.9682 40.0108 62.9778 40.0286H98.6997C101.709 40.0108 104.691 40.5904 107.475 41.7336C110.258 42.8769 112.787 44.5613 114.915 46.689C117.043 48.8167 118.727 51.3456 119.87 54.129C121.013 56.9124 121.593 59.895 121.575 62.904V98.6259Z" fill="var(--fill-0, black)"/>
</g>
</svg>
