<svg preserveAspectRatio="none" width="100%" height="100%" overflow="visible" style="display: block;" viewBox="0 0 124 124" fill="none" xmlns="http://www.w3.org/2000/svg">
<g id="iconoir:light-bulb-on">
<path id="Vector" d="M108.5 10.3333L103.333 15.5M15.5 10.3333L20.6667 15.5M108.5 82.6667L103.333 77.5M15.5 82.6667L20.6667 77.5M46.5 93H77.5M51.6667 108.5H72.3333M62 15.5C41.3333 15.5 30.752 25.575 31 41.3333C31.1188 49.0162 33.5833 54.25 38.75 59.4167C43.9167 64.5833 46.5 67.1667 46.5 77.5H77.5C77.5 67.1667 80.0833 64.5833 85.25 59.4167C90.4167 54.25 92.8812 49.0162 93 41.3333C93.248 25.575 82.6667 15.5 62 15.5Z" stroke="var(--stroke-0, black)" stroke-width="5" stroke-linecap="round" stroke-linejoin="round"/>
</g>
</svg>
