<svg preserveAspectRatio="none" width="100%" height="100%" overflow="visible" style="display: block;" viewBox="0 0 59 59" fill="none" xmlns="http://www.w3.org/2000/svg">
<g id="mage:tiktok-circle">
<path id="Vector" d="M29.5 4.91667C24.6379 4.91667 19.8849 6.35845 15.8422 9.05971C11.7995 11.761 8.64862 15.6003 6.78796 20.0924C4.92731 24.5844 4.44048 29.5273 5.38903 34.296C6.33758 39.0647 8.67892 43.445 12.117 46.883C15.555 50.3211 19.9353 52.6624 24.704 53.611C29.4727 54.5595 34.4156 54.0727 38.9076 52.212C43.3997 50.3514 47.239 47.2005 49.9403 43.1578C52.6415 39.1151 54.0833 34.3621 54.0833 29.5C54.0768 22.9821 51.4847 16.733 46.8759 12.1241C42.267 7.51529 36.0179 4.92317 29.5 4.91667ZM44.1 23.8778V25.4659C44.1001 25.5874 44.0758 25.7077 44.0285 25.8197C43.9813 25.9317 43.9121 26.0331 43.825 26.1179C43.7379 26.2027 43.6347 26.2692 43.5215 26.3134C43.4083 26.3576 43.2874 26.3787 43.1659 26.3755C40.5703 26.1921 38.0871 25.2443 36.0293 23.6516V35.2746C36.0288 36.561 35.772 37.8344 35.2739 39.0204C34.7758 40.2065 34.0465 41.2814 33.1285 42.1825C32.203 43.1072 31.1022 43.8379 29.8907 44.3318C28.6792 44.8257 27.3813 45.0728 26.0731 45.0588C23.4423 45.055 20.9174 44.0227 19.0373 42.1825C17.8411 40.9765 16.9794 39.4798 16.5372 37.8397C16.0949 36.1995 16.0873 34.4725 16.5151 32.8286C16.906 31.2503 17.6951 29.7999 18.8087 28.6175C19.6392 27.6024 20.6861 26.7857 21.8728 26.2273C23.0594 25.6688 24.3559 25.3826 25.6675 25.3897H27.6833V29.5762C27.6842 29.6978 27.6591 29.8182 27.6098 29.9293C27.5605 30.0405 27.4881 30.1398 27.3974 30.2208C27.3067 30.3017 27.1997 30.3624 27.0837 30.3988C26.9677 30.4352 26.8452 30.4464 26.7245 30.4317C25.5541 30.0801 24.2929 30.1968 23.2068 30.757C22.1206 31.3172 21.2944 32.2772 20.9023 33.4347C20.5102 34.5922 20.5829 35.8567 21.1049 36.9617C21.627 38.0666 22.5577 38.9258 23.7008 39.3579C24.3645 39.739 25.107 39.9627 25.869 40.0143C26.459 40.0389 27.049 39.9651 27.6095 39.7881C28.5452 39.4724 29.3591 38.8727 29.9377 38.0724C30.5163 37.2721 30.8308 36.3113 30.8373 35.3238V14.1452C30.8373 13.911 30.9302 13.6862 31.0957 13.5203C31.2611 13.3544 31.4856 13.2609 31.7199 13.2602H35.1984C35.4244 13.2605 35.6418 13.3473 35.8059 13.5027C35.97 13.6581 36.0684 13.8704 36.081 14.0961C36.2078 15.1808 36.5523 16.2287 37.0938 17.177C37.6354 18.1254 38.3628 18.9546 39.2325 19.615C40.4079 20.4973 41.8038 21.0383 43.2667 21.1785C43.4858 21.1973 43.6907 21.2948 43.8435 21.453C43.9962 21.6111 44.0865 21.8193 44.0976 22.039L44.1 23.8778Z" fill="var(--fill-0, white)"/>
</g>
</svg>
