<svg preserveAspectRatio="none" width="100%" height="100%" overflow="visible" style="display: block;" viewBox="0 0 113 113" fill="none" xmlns="http://www.w3.org/2000/svg">
<g id="entypo-social:youtube-with-circle">
<path id="Vector" d="M65.557 55.5565L52.8671 49.6353C51.7597 49.1211 50.85 49.6974 50.85 50.9235V62.0766C50.85 63.3026 51.7597 63.8789 52.8671 63.3648L65.5513 57.4436C66.6644 56.9238 66.6644 56.0763 65.557 55.5565ZM56.5 2.26C26.5437 2.26 2.26 26.5437 2.26 56.5C2.26 86.4563 26.5437 110.74 56.5 110.74C86.4563 110.74 110.74 86.4563 110.74 56.5C110.74 26.5437 86.4563 2.26 56.5 2.26ZM56.5 78.535C28.7359 78.535 28.25 76.0321 28.25 56.5C28.25 36.968 28.7359 34.465 56.5 34.465C84.2641 34.465 84.75 36.968 84.75 56.5C84.75 76.0321 84.2641 78.535 56.5 78.535Z" fill="var(--fill-0, black)"/>
</g>
</svg>
