<svg width="273" height="272" viewBox="0 0 273 272" fill="none" xmlns="http://www.w3.org/2000/svg">
<path d="M141.899 80.6296L146.416 104.939C147.005 108.102 150.681 109.606 153.351 107.784L173.878 93.7641C177.97 90.9705 182.911 95.8787 180.094 99.9274L165.955 120.282C164.117 122.93 165.643 126.575 168.824 127.159L193.34 131.638C198.22 132.532 198.22 139.468 193.34 140.362L168.824 144.841C165.634 145.425 164.117 149.07 165.955 151.718L180.094 172.073C182.911 176.13 177.961 181.03 173.878 178.236L153.351 164.216C150.681 162.394 147.005 163.907 146.416 167.061L141.899 191.37C140.998 196.21 134.002 196.21 133.101 191.37L128.584 167.061C127.995 163.898 124.319 162.394 121.649 164.216L101.122 178.236C97.03 181.03 92.0889 176.121 94.9062 172.073L109.045 151.718C110.883 149.07 109.357 145.425 106.176 144.841L81.6604 140.362C76.7799 139.468 76.7799 132.532 81.6604 131.638L106.176 127.159C109.366 126.575 110.883 122.93 109.045 120.282L94.9062 99.9274C92.0889 95.8701 97.0387 90.9705 101.122 93.7641L121.649 107.784C124.319 109.606 127.995 108.093 128.584 104.939L133.101 80.6296C134.002 75.7901 140.998 75.7901 141.899 80.6296Z" fill="#999999"/>
</svg>
