<svg width="272" height="272" viewBox="0 0 272 272" fill="none" xmlns="http://www.w3.org/2000/svg">
<path d="M136 64L142.11 96.1388C144.278 107.547 156.095 114.367 167.077 110.54L198 99.7537L173.187 121.106C164.381 128.687 164.381 142.32 173.187 149.901L198 171.254L167.077 160.468C156.095 156.64 144.278 163.453 142.11 174.861L136 207L129.89 174.861C127.722 163.453 115.905 156.633 104.923 160.468L74 171.254L98.8133 149.901C107.619 142.32 107.619 128.687 98.8133 121.106L74 99.7537L104.923 110.54C115.905 114.367 127.722 107.554 129.89 96.1388L136 64Z" fill="#999999"/>
</svg>
