<svg width="273" height="273" viewBox="0 0 273 273" fill="none" xmlns="http://www.w3.org/2000/svg">
<path d="M139.631 55.4226L145.122 100.718C145.444 103.38 148.733 104.446 150.563 102.484L181.65 69.068C184.187 66.3427 188.523 69.4907 186.712 72.7459L164.519 112.622C163.212 114.963 165.245 117.764 167.877 117.246L212.679 108.471C216.334 107.758 217.994 112.856 214.611 114.42L173.204 133.642C170.774 134.771 170.774 138.229 173.204 139.358L214.611 158.58C217.988 160.151 216.334 165.248 212.679 164.529L167.877 155.754C165.245 155.236 163.212 158.037 164.519 160.378L186.712 200.254C188.523 203.509 184.187 206.657 181.65 203.932L150.563 170.516C148.739 168.554 145.45 169.62 145.122 172.282L139.631 217.577C139.183 221.274 133.817 221.274 133.369 217.577L127.878 172.282C127.556 169.62 124.267 168.554 122.437 170.516L91.3506 203.932C88.8131 206.657 84.4768 203.509 86.2884 200.254L108.481 160.378C109.788 158.037 107.755 155.236 105.123 155.754L60.3209 164.529C56.6663 165.242 55.0063 160.144 58.3895 158.58L99.796 139.358C102.226 138.229 102.226 134.771 99.796 133.642L58.3895 114.42C55.0126 112.849 56.6663 107.752 60.3209 108.471L105.123 117.246C107.755 117.764 109.788 114.963 108.481 112.622L86.2884 72.7459C84.4768 69.4907 88.8131 66.3427 91.3506 69.068L122.437 102.484C124.261 104.446 127.55 103.38 127.878 100.718L133.369 55.4226C133.824 51.7258 139.183 51.7258 139.631 55.4226Z" fill="#999999"/>
</svg>
